<?xml version="1.0" standalone="no"?><!DOCTYPE svg PUBLIC "-//W3C//DTD SVG 1.1//EN" "http://www.w3.org/Graphics/SVG/1.1/DTD/svg11.dtd"><svg t="1702454828421" class="icon" viewBox="0 0 1024 1024" version="1.1" xmlns="http://www.w3.org/2000/svg" p-id="2160" data-spm-anchor-id="a313x.search_index.0.i5.66663a81mgeirR" width="200" height="200" xmlns:xlink="http://www.w3.org/1999/xlink"><path d="M512 85.347556a93.297778 93.297778 0 0 1 56.718222 19.228444l286.848 163.584c25.528889 18.517333 40.504889 47.587556 40.433778 78.421333v330.695111c0.156444 35.000889-19.185778 67.271111-50.389333 84.053334l-274.787556 157.866666C553.173333 931.356444 533.475556 938.666667 512 938.666667a93.44 93.44 0 0 1-57.016889-19.427556L188.643556 767.217778C151.722667 751.473778 127.957333 716.145778 128 677.162667l0.156444-341.774223a96.896 96.896 0 0 1 54.357334-74.695111L453.219556 104.561778C471.068444 92.558222 490.680889 85.333333 512 85.333333v0.014223z m-9.059556 205.511111L350.72 387.114667c-4.920889 2.944-7.808 8.064-9.500444 13.895111-7.651556 16.184889-2.688 35.712 11.790222 44.529778L595.342222 616.903111l-85.859555 55.580445-130.531556-81.763556c-12.686222-7.722667-30.421333-0.412444-39.566222 16.341333s-6.272 36.608 6.414222 44.359111l151.068445 94.606223a21.191111 21.191111 0 0 0 12.273777 2.915555 20.195556 20.195556 0 0 0 11.320889-2.773333l144.170667-93.240889c8.533333-2.275556 15.800889-7.879111 20.195555-15.587556h0.014223c0.469333-0.753778 0.881778-1.536 1.251555-2.332444 7.68-15.559111 3.512889-34.218667-9.585778-43.676444a36.266667 36.266667 0 0 0-8.817777-6.328889L430.307556 417.123556l83.541333-52.792889 125.198222 76.330666c12.672 7.722667 30.421333 0.455111 39.566222-16.327111s6.300444-36.650667-6.414222-44.373333L526.592 291.128889a21.191111 21.191111 0 0 0-11.548444-2.929778 20.437333 20.437333 0 0 0-12.16 2.659556h0.056888z" p-id="2161" fill="#2c2c2c"></path></svg>